Coordinates
version=1
nRows=9
nColumns=36
inDegrees=yes

Units are S.I. units (second, meters, Newtons, ...)
If the header above contains a line with 'inDegrees', this indicates whether rotational values are in degrees (yes) or radians (no).

endheader
time	pelvis_tilt	pelvis_list	pelvis_rotation	pelvis_tx	pelvis_ty	pelvis_tz	hip_flexion_r	hip_adduction_r	hip_rotation_r	knee_angle_r	knee_angle_r_beta	ankle_angle_r	subtalar_angle_r	mtp_angle_r	hip_flexion_l	hip_adduction_l	hip_rotation_l	knee_angle_l	knee_angle_l_beta	ankle_angle_l	subtalar_angle_l	mtp_angle_l	lumbar_extension	lumbar_bending	lumbar_rotation	arm_flex_r	arm_add_r	arm_rot_r	elbow_flex_r	pro_sup_r	arm_flex_l	arm_add_l	arm_rot_l	elbow_flex_l	pro_sup_l
      4.96000000	     -2.64048001	     -0.56399656	     -0.06334019	     -0.51684321	      0.56406010	     -0.65751393	     90.99443490	    -16.05724952	      5.79532236	    101.69989908	      1.77499809	     22.02316649	      0.21995380	     -7.49999923	     90.27098963	    -15.03964754	      6.89565058	    102.67351521	      1.79199090	     23.77769671	     -0.50399473	     -7.49999923	    -34.93129538	     -1.29396391	      1.31119283	     75.92791280	    -28.65223730	     37.26295548	    106.80412722	     93.46173172	     74.38487954	    -27.70584234	     32.85657420	    112.31708748	    106.74908079
      4.97000000	     -2.26776648	     -0.87948884	     -0.01342665	     -0.51879307	      0.56646062	     -0.65799527	     90.24873197	    -16.01250365	      5.36923697	    101.29586006	      1.76794628	     21.94114096	      0.16860611	     -7.49999924	     89.90650915	    -15.09216863	      7.10014426	    102.40516665	      1.78730733	     23.69527739	     -0.22549659	     -7.49999924	    -35.31541817	     -0.79091458	      1.28115232	     74.46662709	    -28.18127289	     36.35843588	    107.20743289	     93.32089123	     72.93044429	    -27.44763782	     31.94371275	    112.75702250	    106.71442254
      4.98000000	     -2.02416201	     -1.01029756	      0.20238831	     -0.52070767	      0.57038159	     -0.65880115	     89.48711880	    -16.19969853	      5.07198925	    100.71425348	      1.75779533	     21.89834566	      0.12862825	     -7.49999925	     89.33702132	    -14.90718081	      7.01758870	    101.79242193	      1.77661292	     23.48977260	      0.02867389	     -7.49999925	    -35.78289150	     -0.36677106	      1.04553337	     72.92495672	    -27.78328419	     35.46812826	    107.71955253	     93.21424972	     71.53455185	    -27.32001492	     31.26646450	    113.12403908	    106.69295422
      4.99000000	     -1.86808249	     -0.98747092	      0.58736023	     -0.52275538	      0.57449053	     -0.65983322	     88.84677423	    -16.56851694	      4.98919062	    100.11036045	      1.74725541	     21.83644848	      0.07914518	     -7.49999925	     88.73558276	    -14.41266192	      6.82226100	    101.06198248	      1.76386434	     23.16726223	      0.23462426	     -7.49999925	    -36.26535115	     -0.03951785	      0.57666790	     71.22679244	    -27.30503339	     34.30245348	    108.29658536	     93.06275170	     70.33338015	    -27.14099373	     30.45497902	    113.46406690	    106.65659672
      5.00000000	     -1.77977306	     -0.81992083	      1.06599040	     -0.52486192	      0.57818813	     -0.66109155	     88.40141500	    -17.07430903	      5.08831798	     99.57533668	      1.73791748	     21.73615210	      0.03538971	     -7.49999926	     88.15325215	    -13.74236974	      6.45418331	    100.28499613	      1.75030337	     22.83267344	      0.20600173	     -7.49999926	    -36.65532081	      0.21204919	      0.00120493	     69.74182356	    -27.04805390	     33.41051304	    108.79409315	     92.89766620	     69.42615289	    -27.08909252	     30.00878059	    113.58494467	    106.62343306
      5.01000000	     -1.77148818	     -0.50744414	      1.40917583	     -0.52694809	      0.58132596	     -0.66208539	     88.18703929	    -17.39841013	      5.43271587	     99.08482410	      1.72935642	     21.56124353	     -0.08475892	     -7.49999927	     87.63950275	    -13.18036964	      5.90754381	     99.52142867	      1.73697661	     22.24670807	     -0.48508805	     -7.49999927	    -36.91261283	      0.21718181	     -0.47134094	     68.26391315	    -26.90147708	     32.44093787	    109.26530405	     92.49657156	     68.86425386	    -27.07298206	     29.98446065	    113.52932361	    106.60568388
      5.02000000	     -1.64340714	     -0.33911236	      1.68056973	     -0.52906749	      0.58395061	     -0.66292803	     87.85299419	    -17.63208020	      5.60138943	     98.64294552	      1.72164418	     21.44831592	     -0.21728071	     -7.49999928	     87.15376874	    -12.67115918	      5.69688962	     98.92788818	      1.72661737	     21.97590631	     -0.60500572	     -7.49999928	    -37.28922655	      0.39721678	     -0.79699897	     67.50476307	    -26.99699575	     32.34794744	    109.54731083	     92.40505706	     68.61862074	    -27.23863192	     30.05702487	    113.35393387	    106.60229746
      5.03000000	     -1.64131384	     -0.28527682	      1.66779388	     -0.53111206	      0.58546467	     -0.66313468	     87.71778883	    -17.43130778	      5.73855257	     98.26115580	      1.71498070	     21.39992150	     -0.23678711	     -7.49999928	     86.98857159	    -12.55148943	      5.61642039	     98.53771170	      1.71980751	     21.87900325	     -0.62632599	     -7.49999928	    -37.44207502	      0.51310305	     -0.89174874	     67.03372127	    -27.16257866	     32.47929019	    109.58400288	     92.39509293	     68.49852390	    -27.48627786	     30.14954394	    113.21177901	    106.59715997
      5.04000000	     -1.63270603	      0.03674260	      1.70710292	     -0.53324115	      0.58600159	     -0.66327976	     87.87699774	    -17.32199876	      6.18923354	     98.04879169	      1.71127424	     20.90183359	     -0.71219002	     -7.49999929	     86.83921279	    -12.31855505	      5.24475306	     98.17348270	      1.71345051	     21.05815911	     -1.10233532	     -7.49999929	    -37.64273143	      0.27526882	     -1.05082335	     66.79576470	    -27.58854614	     32.67596872	    109.91648509	     92.32428598	     69.25178456	    -27.80022013	     31.15061571	    112.71117442	    106.61380767
